<mxfile host="app.diagrams.net" modified="2024-01-23T01:03:50.846Z" agent="Mozilla/5.0 (Windows NT 10.0; Win64; x64) AppleWebKit/537.36 (KHTML, like Gecko) Chrome/120.0.0.0 Safari/537.36 Edg/120.0.0.0" version="22.1.16" etag="WHF6Z5yDBsC8AdnvIEqQ" type="github">
  <diagram name="Page-1" id="g5vf6OMzk2YphPBEjc7Q">
    <mxGraphModel>
      <root>
        <mxCell id="0" />
        <mxCell id="1" parent="0" />
      </root>
    </mxGraphModel>
  </diagram>
</mxfile>
